PathFileType	4	(X/Y/Z)	/Users/itak/Documents/Research/Walk-IL/dataset/trc/00042_00004.trc
DataRate	CameraRate	NumFrames	NumMarkers	Units	OrigDataRate	OrigDataStartFrame	OrigNumFrames
100.000000	100.000000	4	53	mm	100.000000	405	540
Frame#	Time	RPSI			LPSI			L3			STRN			T10			C7			CLAV			RBAK			LBAK			LSHO			LUPA			LAEL			LAOL			LWTS			LWPS			LFRA			LIFD			LHPS			LHTS			RSHO			RUPA			RAEL			RAOL			RWTS			RWPS			RFRA			RIFD			RHTS			RHPS			RBHD			LFHD			RFHD			LBHD			LHIP			RHIP			RASI			LASI			LKNE			LTHI			LANK			LTIP			LTOE			LMT1			LMT5			LHEE			RKNE			RTHI			RANK			RTIP			RTOE			RMT1			RMT5			RHEE			
		X1	Y1	Z1	X2	Y2	Z2	X3	Y3	Z3	X4	Y4	Z4	X5	Y5	Z5	X6	Y6	Z6	X7	Y7	Z7	X8	Y8	Z8	X9	Y9	Z9	X10	Y10	Z10	X11	Y11	Z11	X12	Y12	Z12	X13	Y13	Z13	X14	Y14	Z14	X15	Y15	Z15	X16	Y16	Z16	X17	Y17	Z17	X18	Y18	Z18	X19	Y19	Z19	X20	Y20	Z20	X21	Y21	Z21	X22	Y22	Z22	X23	Y23	Z23	X24	Y24	Z24	X25	Y25	Z25	X26	Y26	Z26	X27	Y27	Z27	X28	Y28	Z28	X29	Y29	Z29	X30	Y30	Z30	X31	Y31	Z31	X32	Y32	Z32	X33	Y33	Z33	X34	Y34	Z34	X35	Y35	Z35	X36	Y36	Z36	X37	Y37	Z37	X38	Y38	Z38	X39	Y39	Z39	X40	Y40	Z40	X41	Y41	Z41	X42	Y42	Z42	X43	Y43	Z43	X44	Y44	Z44	X45	Y45	Z45	X46	Y46	Z46	X47	Y47	Z47	X48	Y48	Z48	X49	Y49	Z49	X50	Y50	Z50	X51	Y51	Z51	X52	Y52	Z52	X53	Y53	Z53	

406	4.05	-26.66991233825684	1069.393676757812	871.0592041015625	123.3784561157227	1064.377807617188	808.1135864257812	53.69405364990234	1125.12255859375	831.95947265625	125.9937591552734	1314.170166015625	1053.775756835938	48.71791839599609	1269.567993164062	814.5756225585938	75.51995086669922	1536.11328125	863.9617919921875	117.3145751953125	1441.37353515625	1015.50439453125	-17.46719169616699	1399.862670898438	836.7136840820312	162.6605987548828	1496.61279296875	816.6285400390625	263.2501220703125	1501.288940429688	892.6890869140625	326.39990234375	1378.251098632812	834.8760986328125	351.7129211425781	1162.42919921875	814.2470703125	249.2760772705078	1151.411010742188	790.0812377929688	330.0043029785156	908.1075439453125	910.0863647460938	344.4756774902344	894.9761352539062	823.3515625	362.1951293945312	1046.382202148438	820.7504272460938	316.5696411132812	723.40673828125	937.1668701171875	354.1794128417969	804.7706909179688	853.8248901367188	347.9743347167969	813.8803100585938	924.408935546875	-68.30936431884766	1519.479248046875	989.8176879882812	-141.1613311767578	1451.436645507812	996.0776977539062	-192.9052581787109	1187.8818359375	968.5726318359375	-101.8140487670898	1153.694580078125	945.1057739257812	-126.2160873413086	951.807373046875	1125.556640625	-206.3865661621094	926.4962768554688	1085.348510742188	-206.3455200195312	1111.904174804688	993.89794921875	-94.0018310546875	779.06640625	1167.900146484375	-126.6064071655273	853.04541015625	1182.913696289062	-190.5574340820312	836.1478881835938	1144.96630859375	155.5368804931641	1716.852294921875	904.7190551757812	43.99949264526367	1731.352172851562	1092.080688476562	141.5185241699219	1738.003662109375	1084.653442382812	12.43979930877686	1704.782470703125	921.853759765625	263.7759399414062	959.737548828125	855.2943115234375	-76.74165344238281	950.5873413085938	1010.024536132812	28.54938125610352	986.0133056640625	1079.768310546875	242.5108184814453	1004.824890136719	987.7399291992188	282.9448547363281	512.51953125	984.6642456054688	290.8148498535156	653.4561767578125	927.5342407226562	179.2140655517578	168.602783203125	616.6035766601562	243.8210601806641	348.4905395507812	783.39794921875	182.6593322753906	50.48920822143555	807.1048583984375	150.2069091796875	86.00581359863281	769.5945434570312	233.4113922119141	100.724235534668	705.228759765625	112.7143478393555	211.3907012939453	583.8772583007812	6.790167331695557	526.2201538085938	1065.908813476562	-61.57030487060547	788.5646362304688	1047.937744140625	62.1921272277832	40.10794067382812	1009.429809570312	16.09312438964844	399.470458984375	1058.198486328125	143.3044128417969	44.54678344726562	1230.332153320312	160.7653198242188	50.43275451660156	1164.13818359375	63.47635650634766	41.70670700073242	1159.445922851562	97.08162689208984	42.16943740844727	948.0615844726562	
407	4.06	-25.6428165435791	1070.14599609375	874.7587280273438	124.6687316894531	1065.322265625	812.3910522460938	54.73845672607422	1125.877807617188	836.0499877929688	126.3593902587891	1314.908813476562	1058.37939453125	49.62032699584961	1270.313354492188	818.9869995117188	76.2630615234375	1536.8837890625	868.4174194335938	117.7276992797852	1442.107055664062	1020.115417480469	-16.71374320983887	1400.588989257812	841.0567626953125	163.4872589111328	1497.342529296875	821.3050537109375	263.8932495117188	1502.049194335938	897.554443359375	327.2705993652344	1379.034912109375	839.97265625	352.830810546875	1163.198608398438	819.6417846679688	250.4895477294922	1152.092407226562	795.08984375	330.9093627929688	909.0779418945312	915.8982543945312	345.7386169433594	895.7562866210938	829.2698364257812	363.3707580566406	1047.181274414062	826.4009399414062	317.4287719726562	724.4431762695312	943.3327026367188	355.3626098632812	805.6344604492188	859.98876953125	348.8748779296875	814.8865966796875	930.5109252929688	-67.81021118164062	1520.261962890625	994.0762329101562	-140.6746520996094	1452.25341796875	1000.255310058594	-192.2587280273438	1188.560180664062	973.1541137695312	-101.1386566162109	1154.39208984375	949.8294677734375	-124.7001113891602	953.6334228515625	1131.6171875	-204.9968719482422	927.7953491210938	1091.61181640625	-205.5612945556641	1112.604736328125	998.8688354492188	-92.10934448242188	781.3299560546875	1175.16455078125	-124.937858581543	855.31201171875	1189.640502929688	-188.8376770019531	837.9277954101562	1151.85888671875	156.1941070556641	1717.642944335938	909.3765258789062	44.45658493041992	1732.094482421875	1096.603881835938	142.0037078857422	1738.67822265625	1089.316772460938	13.06403350830078	1705.620727539062	926.32568359375	265.0737609863281	960.701904296875	860.1163940429688	-76.28565979003906	950.9215698242188	1013.089477539062	28.7469654083252	986.4383544921875	1083.556884765625	243.0681457519531	1005.810485839844	992.4371948242188	282.5606689453125	514.5762939453125	994.504150390625	291.4187316894531	654.6199340820312	935.7256469726562	185.4390563964844	160.610107421875	634.3298950195312	246.8811492919922	345.7984008789062	796.7001342773438	188.0754852294922	49.71759414672852	829.1930541992188	155.7367553710938	83.51388549804688	790.0258178710938	239.3772125244141	96.55368804931641	725.9700317382812	119.0617446899414	201.7786254882812	599.4631958007812	6.956329345703125	526.07080078125	1066.68212890625	-60.9070930480957	788.6459350585938	1050.365966796875	62.42481231689453	40.02106094360352	1009.502197265625	16.19567108154297	399.4747314453125	1058.595947265625	143.2818450927734	44.5369873046875	1230.352416992188	160.7331848144531	50.42664337158203	1164.166381835938	63.44819259643555	41.708984375	1159.477416992188	97.15168762207031	42.17461776733398	948.0616455078125	
408	4.07	-24.62663841247559	1070.869873046875	878.4036865234375	125.9462280273438	1066.232543945312	816.5820922851562	55.75709915161133	1126.5888671875	840.0548095703125	126.7350616455078	1315.602172851562	1062.884155273438	50.49647903442383	1271.017944335938	823.3048095703125	76.98478698730469	1537.610229492188	872.7886962890625	118.1346664428711	1442.788452148438	1024.633544921875	-15.97428894042969	1401.273681640625	845.3229370117188	164.2965087890625	1498.027954101562	825.8866577148438	264.5181274414062	1502.762573242188	902.302001953125	328.1141967773438	1379.772094726562	844.949462890625	353.9072570800781	1163.925170898438	824.9088745117188	251.6852874755859	1152.723022460938	799.9965209960938	331.8096923828125	910.02490234375	921.641357421875	346.9922180175781	896.4964599609375	835.1165771484375	364.5221862792969	1047.939819335938	831.9410400390625	318.3551025390625	725.46337890625	949.4708862304688	356.576171875	806.4686889648438	866.0985717773438	349.8041687011719	815.8836669921875	936.5636596679688	-67.31498718261719	1520.99853515625	998.2637329101562	-140.1955413818359	1453.025512695312	1004.350341796875	-191.6591186523438	1189.204833984375	977.564697265625	-100.5167999267578	1155.069702148438	954.3257446289062	-123.184944152832	955.3272705078125	1137.302734375	-203.6208953857422	929.0009765625	1097.549438476562	-204.8260345458984	1113.26123046875	1003.629028320312	-90.17155456542969	783.4493408203125	1181.917114257812	-123.1769027709961	857.4351806640625	1195.926025390625	-187.0630187988281	839.572021484375	1158.352783203125	156.8496246337891	1718.357055664062	913.8552856445312	44.95212173461914	1732.854858398438	1100.971435546875	142.5349884033203	1739.36669921875	1093.797485351562	13.69904899597168	1706.405639648438	930.6649169921875	266.3485412597656	961.6323852539062	864.8078002929688	-75.80862426757812	951.2494506835938	1016.133178710938	28.9824390411377	986.8195190429688	1087.272705078125	243.6327972412109	1006.755187988281	997.02099609375	282.0270385742188	516.631591796875	1003.947998046875	291.9279174804688	655.7689208984375	943.6285400390625	191.7036285400391	152.4324493408203	652.5108032226562	249.8653564453125	342.9701538085938	809.9821166992188	193.2995147705078	48.82640838623047	851.4391479492188	161.1518402099609	80.87079620361328	810.6956176757812	245.2305450439453	92.2532958984375	747.0342407226562	125.4368591308594	191.8619842529297	615.5310668945312	7.154106140136719	525.9410400390625	1067.432373046875	-60.10859298706055	788.73681640625	1052.776000976562	62.60285186767578	39.96514129638672	1009.551940917969	16.30461692810059	399.4765014648438	1058.978149414062	143.2660064697266	44.52145004272461	1230.377075195312	160.7017211914062	50.41608810424805	1164.196411132812	63.43640518188477	41.70807647705078	1159.512451171875	97.21986389160156	42.17739868164062	948.0589599609375	
409	4.08	-23.61953926086426	1071.561767578125	881.9912719726562	127.2143630981445	1067.100952148438	820.689453125	56.7599983215332	1127.251708984375	843.9743041992188	127.117561340332	1316.240844726562	1067.28369140625	51.34959411621094	1271.678955078125	827.525390625	77.68412017822266	1538.288452148438	877.0775756835938	118.5466766357422	1443.413452148438	1029.054321289062	-15.2464656829834	1401.91357421875	849.5101928710938	165.0881042480469	1498.666748046875	830.3740234375	265.1306762695312	1503.42724609375	906.9348754882812	328.9345397949219	1380.458618164062	849.8071899414062	354.9381713867188	1164.605346679688	830.0489501953125	252.8528900146484	1153.30029296875	804.8072509765625	332.705078125	910.94384765625	927.3123779296875	348.2308959960938	897.194580078125	840.885986328125	365.6440124511719	1048.652709960938	837.3677368164062	319.3433532714844	726.4593505859375	955.5802001953125	357.8136901855469	807.2680053710938	872.14697265625	350.7648010253906	816.8673706054688	942.5601806640625	-66.82502746582031	1521.678466796875	1002.380676269531	-139.7209625244141	1453.736450195312	1008.366943359375	-191.1002655029297	1189.798828125	981.8130493164062	-99.94290924072266	1155.711669921875	958.6099243164062	-121.6915283203125	956.8663330078125	1142.622436523438	-202.2642822265625	930.0963745117188	1103.163452148438	-204.1326141357422	1113.860107421875	1008.191711425781	-88.20193481445312	785.3952026367188	1188.165893554688	-121.3337783813477	859.3897705078125	1201.778564453125	-185.2577819824219	841.0579223632812	1164.45068359375	157.5049896240234	1718.989990234375	918.1633911132812	45.48965835571289	1733.61767578125	1105.194458007812	143.1104583740234	1740.060546875	1098.098510742188	14.34233665466309	1707.132446289062	934.8814697265625	267.6012573242188	962.5220336914062	869.3916625976562	-75.32852172851562	951.5700073242188	1019.14453125	29.2474250793457	987.1524658203125	1090.91357421875	244.2057495117188	1007.655639648438	1001.503234863281	281.3858947753906	518.6702880859375	1013.006042480469	292.378173828125	656.8967895507812	951.243896484375	198.0013732910156	144.2252655029297	671.10888671875	252.7672729492188	340.0577087402344	823.2371826171875	198.2418975830078	47.92543411254883	873.7693481445312	166.3640747070312	78.18637084960938	831.5254516601562	250.9126129150391	87.92974853515625	768.37158203125	131.8135375976562	181.7909851074219	632.0316772460938	7.38381814956665	525.8319091796875	1068.1826171875	-59.18033218383789	788.8422241210938	1055.168212890625	62.72351455688477	39.94063949584961	1009.578674316406	16.41887092590332	399.4743347167969	1059.361328125	143.2552490234375	44.50069046020508	1230.404907226562	160.6670989990234	50.39764785766602	1164.22607421875	63.43176651000977	41.69991302490234	1159.54443359375	97.28023529052734	42.17861557006836	948.0497436523438	
